<?xml version="1.0" encoding="UTF-8"?>
<svg id="Layer_2" data-name="Layer 2" xmlns="http://www.w3.org/2000/svg" viewBox="0 0 528.83 122.26">
  <defs>
    <style>
      .cls-1, .cls-2, .cls-3 {
        fill: #c69c6d;
      }

      .cls-2 {
        font-size: 20.64px;
      }

      .cls-2, .cls-3 {
        font-family: BookmanOldStyle, 'Bookman Old Style';
      }

      .cls-3 {
        font-size: 36.67px;
      }
    </style>
  </defs>
  <g id="Layer_1-2" data-name="Layer 1">
    <text class="cls-3" transform="translate(198.07 71.23)"><tspan x="0" y="0">KOVAI PROPERTY</tspan></text>
    <polygon class="cls-1" points="64.94 94.36 64.94 24.6 76.45 17.65 76.45 93.04 64.94 94.36"/>
    <polygon class="cls-1" points="149.08 94.36 149.08 24.6 137.57 17.65 137.57 93.04 149.08 94.36"/>
    <polygon class="cls-1" points="81.42 14.71 81.42 92.77 90.29 92.05 90.29 9.62 81.42 14.71"/>
    <polygon class="cls-1" points="133.32 14.71 133.32 92.77 124.45 92.05 124.45 9.62 133.32 14.71"/>
    <path class="cls-1" d="M95.63,6.98c-.08,28.27-.16,56.53-.24,84.8h6.53c.06-6.7.12-13.4.18-20.1,1.82-1.06,3.63-2.12,5.45-3.19,1.82,1.07,3.63,2.15,5.45,3.22.01,6.67.03,13.33.04,20,2.12.02,4.25.04,6.37.06V7.23c-3.93-2.41-7.85-4.82-11.78-7.23-4,2.33-8.01,4.65-12.01,6.98Z"/>
    <path class="cls-1" d="M0,122.26c18.06-9.56,56.75-26.95,108.56-26.49,49.54.44,86.55,16.97,104.51,26.49-22.14-8.68-58.27-19.73-103.91-20.14-48.36-.43-86.51,11.26-109.16,20.14Z"/>
    <text class="cls-2" transform="translate(288.33 98.27)"><tspan x="0" y="0">CONSULTANT</tspan></text>
  </g>
</svg>